<svg width="48" height="48" viewBox="0 0 48 48" fill="none" xmlns="http://www.w3.org/2000/svg">
<path d="M23.1605 19.8579H16.0742V12.7537" stroke="#0F73F6" stroke-width="1.12" stroke-miterlimit="10" stroke-linecap="round" stroke-linejoin="round"/>
<path d="M46.9688 2.02722H1.03125V7.06713H46.9688V2.02722Z" stroke="#0F73F6" stroke-width="1.12" stroke-miterlimit="10" stroke-linecap="round" stroke-linejoin="round"/>
<path d="M3.44922 31.9538V7.76306" stroke="#0F73F6" stroke-width="1.12" stroke-miterlimit="10" stroke-linecap="round" stroke-linejoin="round"/>
<path d="M44.5508 7.76306V31.9538" stroke="#0F73F6" stroke-width="1.12" stroke-miterlimit="10" stroke-linecap="round" stroke-linejoin="round"/>
<path d="M24 38.4355V40.1929" stroke="#0F73F6" stroke-width="1.12" stroke-miterlimit="10" stroke-linecap="round" stroke-linejoin="round"/>
<path d="M23.9994 45.9727C25.4553 45.9727 26.6356 44.7897 26.6356 43.3303C26.6356 41.8709 25.4553 40.6879 23.9994 40.6879C22.5435 40.6879 21.3633 41.8709 21.3633 43.3303C21.3633 44.7897 22.5435 45.9727 23.9994 45.9727Z" stroke="#0F73F6" stroke-width="1.12" stroke-miterlimit="10" stroke-linecap="round" stroke-linejoin="round"/>
<path d="M16.0714 27.804C20.4493 27.804 23.9982 24.2466 23.9982 19.8583C23.9982 15.47 20.4493 11.9126 16.0714 11.9126C11.6935 11.9126 8.14453 15.47 8.14453 19.8583C8.14453 24.2466 11.6935 27.804 16.0714 27.804Z" stroke="#0F73F6" stroke-width="1.12" stroke-miterlimit="10" stroke-linecap="round" stroke-linejoin="round"/>
<path d="M38.8885 11.9126H28.668V18.1771H38.8885V11.9126Z" stroke="#0F73F6" stroke-width="1.12" stroke-miterlimit="10" stroke-linecap="round" stroke-linejoin="round"/>
<path d="M28.668 22.5317H38.8885" stroke="#0F73F6" stroke-width="1.12" stroke-miterlimit="10" stroke-linecap="round" stroke-linejoin="round"/>
<path d="M28.668 26.6792H38.8885" stroke="#0F73F6" stroke-width="1.12" stroke-miterlimit="10" stroke-linecap="round" stroke-linejoin="round"/>
<path d="M46.9688 32.6497H1.03125V37.6896H46.9688V32.6497Z" stroke="#0F73F6" stroke-width="1.12" stroke-miterlimit="10" stroke-linecap="round" stroke-linejoin="round"/>
</svg>
